<svg width="225" height="61" viewBox="0 0 225 61" fill="none" xmlns="http://www.w3.org/2000/svg">
<path fill-rule="evenodd" clip-rule="evenodd" d="M30.7301 48.7846C40.9121 48.7846 49.1663 40.5944 49.1663 30.4913C49.1663 20.3882 40.9121 12.198 30.7301 12.198C20.5481 12.198 12.2939 20.3882 12.2939 30.4913C12.2939 40.5944 20.5481 48.7846 30.7301 48.7846ZM30.7301 60.9801C47.7001 60.9801 61.4571 47.3297 61.4571 30.4913C61.4571 13.6528 47.7001 0.00249311 30.7301 0.00249311C13.7601 0.00249311 0.00309687 13.6528 0.00309687 30.4913C0.00309687 47.3297 13.7601 60.9801 30.7301 60.9801Z" fill="white"/>
<path fill-rule="evenodd" clip-rule="evenodd" d="M80.8345 -0.000627541L82.7725 -0.000734708L87.0377 -0.000647031C97.1897 0.0302117 105.411 8.20291 105.416 18.2821C105.414 22.9626 103.639 27.2529 100.723 30.4868C103.64 33.7208 105.415 37.9908 105.417 42.672C105.412 52.7703 97.1598 60.9757 86.9813 60.9757H80.8599H68.5691L68.5768 54.8779L68.5691 48.7813H86.9813C90.3753 48.7813 93.1267 46.0513 93.1267 42.6836C93.1267 39.3159 90.3753 36.5858 86.9813 36.5858H80.8586H72.4979H68.5678L68.5451 36.5834V24.3899L82.7738 24.3891L87.039 24.3892L87.0859 24.3894C90.4311 24.3333 93.1254 21.6252 93.1254 18.2925C93.1254 14.9248 90.374 12.1948 86.98 12.1948H70.3932L68.5451 12.1935L74.6892 6.09702L80.8345 -0.000627541Z" fill="white"/>
<path fill-rule="evenodd" clip-rule="evenodd" d="M118.342 12.1817L124.487 6.08407L130.117 0.498357C144.398 3.12208 155.214 15.5457 155.214 30.4758C155.214 47.3139 141.457 60.9638 124.487 60.9638H118.342V48.7686H124.487C132.515 48.7686 139.345 43.6776 141.875 36.5719H118.342V24.3767H141.874C139.343 17.2726 132.514 12.183 124.487 12.183L118.342 12.1817Z" fill="white"/>
<path fill-rule="evenodd" clip-rule="evenodd" d="M189.93 17.5715L172.238 0.0167608L166.355 5.85347L163.547 8.64031L181.239 26.1954L163.55 43.7491L163.55 60.9962L225.002 0.0167608H207.62L189.93 17.5715Z" fill="white"/>
</svg>
