<svg width="12" height="12" viewBox="0 0 12 12" fill="none" xmlns="http://www.w3.org/2000/svg">
<path d="M5.99784 4.82745L2.12347 0.953079C1.96204 0.791682 1.70032 0.791682 1.53892 0.953079L0.954366 1.53761C0.792948 1.69901 0.792948 1.96079 0.954366 2.12219L4.83089 5.99869L0.954264 9.8752C0.792847 10.0366 0.792948 10.2984 0.954366 10.4598L1.53892 11.0443C1.70032 11.2057 1.96204 11.2057 2.12347 11.0443L5.99784 7.16994L9.87221 11.0443C10.0337 11.2057 10.2954 11.2057 10.4568 11.0443L11.0413 10.4598C11.2027 10.2984 11.2028 10.0366 11.0414 9.8752L7.16479 5.99869L11.0413 2.12219C11.2027 1.96079 11.2027 1.69901 11.0413 1.53761L10.4568 0.953079C10.2954 0.791682 10.0337 0.791682 9.87221 0.953079L5.99784 4.82745Z" fill="#FEFEFE"/>
</svg>
