<svg width="12" height="16" viewBox="0 0 12 16" fill="none" xmlns="http://www.w3.org/2000/svg">
<path d="M5.59197 0.915617C5.46949 0.975031 5.3695 1.08094 5.3195 1.20752C5.28451 1.29276 5.27951 1.70091 5.27951 4.83691V8.37072L4.36212 7.42269C3.39474 6.42558 3.32974 6.37133 3.11477 6.36875C2.94229 6.36875 2.78731 6.47207 2.48235 6.79497C2.32986 6.95772 2.18738 7.13079 2.16738 7.17987C2.11739 7.30386 2.12239 7.4976 2.17738 7.6216C2.24487 7.76884 5.80694 11.4396 5.93443 11.4964C6.05441 11.5455 6.2044 11.5455 6.32438 11.4964C6.44187 11.4447 10.0089 7.77401 10.0814 7.62418C10.1539 7.4821 10.1489 7.27545 10.0714 7.13596C9.98394 6.98613 9.459 6.45657 9.34652 6.40749C9.22403 6.35583 9.06405 6.35841 8.94157 6.41783C8.87657 6.45141 8.52912 6.78981 7.92919 7.41236C7.42675 7.93158 7.0093 8.35781 6.9993 8.35781C6.9893 8.35781 6.9768 6.74848 6.9743 4.78525L6.9668 1.2101L6.89431 1.10419C6.84932 1.03703 6.77683 0.972447 6.69684 0.931116C6.57435 0.86912 6.55185 0.866536 6.13191 0.866536C5.75695 0.866536 5.67696 0.874286 5.59197 0.915617Z" fill="#2C9EAE"/>
<path d="M1.06387 13.3917C1.00293 13.4247 0.91914 13.5008 0.875976 13.5592L0.799805 13.6684V14.1915V14.717L0.873437 14.8237C0.91914 14.8922 0.990234 14.9532 1.07402 14.9963L1.20351 15.0598H5.99218H10.7808L10.9103 14.9963C10.9941 14.9532 11.0652 14.8922 11.1109 14.8237C11.1845 14.717 11.1845 14.717 11.1922 14.2473C11.1972 13.9553 11.1896 13.742 11.1719 13.6836C11.1363 13.5567 11.0297 13.4374 10.9052 13.3815C10.8088 13.3358 10.6056 13.3333 5.98964 13.3333H1.17559L1.06387 13.3917Z" fill="#2C9EAE"/>
</svg>
