<svg width="20" height="16" viewBox="0 0 20 16" fill="none" xmlns="http://www.w3.org/2000/svg">
<path d="M2.03745 0.0687509C1.1062 0.293751 0.312451 1.1375 0.124951 2.125C0.0374512 2.575 0.0374512 13.425 0.124951 13.8813C0.281201 14.7063 0.824951 15.3938 1.61245 15.7688L2.0312 15.9688H9.99995H17.9687L18.3875 15.7688C19.175 15.3938 19.7187 14.7063 19.875 13.8813C19.9625 13.425 19.9625 2.575 19.875 2.11875C19.7187 1.29375 19.175 0.606251 18.3875 0.231251L17.9687 0.0312509L10.125 0.018751C5.52495 0.012501 2.1812 0.0375009 2.03745 0.0687509ZM6.7062 5.14375C9.7312 7.31875 9.46245 7.15 9.91245 7.175C10.1812 7.19375 10.3625 7.16875 10.5062 7.1C10.625 7.04375 11.775 6.2375 13.0625 5.30625C14.35 4.375 15.475 3.5875 15.5562 3.55625C15.9375 3.40625 16.375 3.725 16.375 4.15C16.375 4.3 16.325 4.4625 16.2625 4.5375C16.1125 4.725 11.4687 8.05 11.1 8.2375C10.4562 8.5625 9.5937 8.56875 8.93745 8.25625C8.6187 8.10625 3.83745 4.68125 3.71245 4.5125C3.6062 4.375 3.6062 3.9375 3.71245 3.8C3.8437 3.625 4.1437 3.49375 4.3312 3.525C4.42495 3.54375 5.4937 4.275 6.7062 5.14375Z" fill="#2C9EAE"/>
</svg>
