<svg width="91" height="84" viewBox="0 0 91 84" fill="none" xmlns="http://www.w3.org/2000/svg">
<path fill-rule="evenodd" clip-rule="evenodd" d="M55.9579 52.3186H24.3313C21.382 52.3186 18.7044 51.2966 16.7641 49.6457C14.7075 47.9555 13.4268 45.5578 13.4268 42.8849V32.5862C13.4268 29.9525 14.7075 27.5547 16.7641 25.8646C18.7044 24.2137 21.382 23.1917 24.3313 23.1917H55.9579C58.9072 23.1917 61.5847 24.2137 63.525 25.8646C65.5817 27.5547 66.8624 29.9525 66.8624 32.5862V42.8849C66.8624 45.5578 65.5817 47.9555 63.525 49.6457C61.5847 51.2966 58.9072 52.3186 55.9579 52.3186ZM24.3313 48.9381H55.9579C58.0922 48.9381 60.0323 48.2308 61.4296 47.0515C62.7102 45.9507 63.525 44.4965 63.525 42.8849V32.5862C63.525 31.0141 62.7102 29.5204 61.4296 28.4588C60.0323 27.2798 58.0922 26.5722 55.9579 26.5722H24.3313C22.1968 26.5722 20.2565 27.2798 18.8597 28.4588C17.579 29.5204 16.7641 31.0141 16.7641 32.5862V42.8849C16.7641 44.4965 17.579 45.9507 18.8597 47.0515C20.2565 48.2308 22.1968 48.9381 24.3313 48.9381ZM49.6713 43.8281L62.7489 31.9573H58.2086L55.1429 34.748L51.8445 31.6821L49.7102 33.6475L52.8534 36.7921L49.6713 39.7795V43.8281ZM39.97 36.3205V39.1113H45.2864C45.0922 39.5436 44.7043 39.8974 44.0835 40.2119C43.3849 40.5656 42.5698 40.7623 41.6386 40.7623H39.97V43.5529H41.8715C43.6953 43.5529 45.2474 43.0028 46.4506 41.8628C47.6923 40.7623 48.3131 39.3863 48.3131 37.7749C48.3131 36.0845 47.8087 34.7088 46.8385 33.6082C45.8296 32.5075 44.5879 31.9573 43.0355 31.9573L39.97 34.748H41.6386C42.6088 34.748 43.4237 34.9055 44.0445 35.1805C44.7043 35.4948 45.0922 35.8881 45.2864 36.3205H39.97ZM30.8893 36.3597V39.1506H34.9641C35.1967 39.1506 35.3909 39.2291 35.5074 39.3863C35.6626 39.5043 35.7014 39.701 35.7014 39.9367C35.7014 40.1726 35.6626 40.3691 35.5074 40.5264C35.3909 40.6835 35.1967 40.7623 34.9641 40.7623H30.8893V43.5529H35.5461C36.4387 43.5529 37.2147 43.1993 37.8356 42.5704C38.4564 41.902 38.7671 41.0373 38.7671 39.9367C38.7671 39.4258 38.6506 38.9934 38.4176 38.561C38.146 38.1678 37.8356 37.8927 37.4476 37.7749C37.8356 37.5782 38.1849 37.2637 38.4176 36.8709C38.6506 36.5169 38.7671 36.0452 38.7671 35.5343C38.7671 34.473 38.4564 33.6082 37.8746 32.9399C37.2534 32.2718 36.4774 31.9573 35.5461 31.9573H33.955L30.8893 34.748H34.9641C35.1967 34.748 35.3909 34.8267 35.5074 34.9448C35.6626 35.1019 35.7014 35.2984 35.7014 35.5343C35.7014 35.77 35.6626 35.9667 35.5074 36.124C35.3909 36.2812 35.1967 36.3597 34.9641 36.3597H30.8893ZM23.7104 31.8001C22.1193 31.8001 20.8387 32.311 19.8297 33.333C18.7432 34.4336 18.1999 35.8881 18.1999 37.7354C18.1999 39.6222 18.7432 41.0767 19.8297 42.138C20.8387 43.1993 22.1193 43.7102 23.7104 43.7102C25.3013 43.7102 26.6207 43.1993 27.6296 42.138C28.6774 41.0767 29.2208 39.583 29.2208 37.7354C29.2208 35.8881 28.7164 34.4336 27.6684 33.333C26.6596 32.311 25.3403 31.8001 23.7104 31.8001ZM26.194 37.7354C26.194 38.6789 25.9998 39.4258 25.612 39.976C25.2237 40.605 24.5639 40.9195 23.7104 40.9195C22.8566 40.9195 22.2358 40.605 21.8089 39.976C21.4595 39.4258 21.2656 38.6789 21.2656 37.7354C21.2656 36.8314 21.4595 36.0845 21.8089 35.5343C22.2358 34.9055 22.8566 34.5908 23.7104 34.5908C24.5639 34.5908 25.185 34.9055 25.612 35.5343C25.9998 36.124 26.194 36.8314 26.194 37.7354Z" fill="#1C1C1C"/>
<path fill-rule="evenodd" clip-rule="evenodd" d="M3.2214 59.2759C3.02746 68.1595 9.27512 72.4047 17.3855 72.3655L81.5314 72.1295L61.5852 84.0003L65.1165 75.7853C48.2748 75.9029 31.4719 76.0602 14.6302 76.1389C5.4721 76.1782 -0.46519 67.7664 3.2214 59.2759ZM18.2393 64.0714L88.6715 63.7177L91 66.4692L88.1284 68.1201L17.502 68.474C6.24834 68.5525 3.91996 57.6644 5.82147 53.3011L6.79147 51.1C7.02441 58.4898 11.0214 64.0714 18.2393 64.0714ZM10.2454 43.0027C11.0214 52.0041 15.9884 55.9348 23.6719 55.974L73.5762 56.0528L76.4089 49.5669L85.4896 60.1014H21.6929C11.6035 60.1014 6.79147 51.2965 9.4303 44.968L10.2454 43.0027Z" fill="#1C1C1C"/>
<path fill-rule="evenodd" clip-rule="evenodd" d="M70.2773 33.8045L78.1548 15.6446C80.2503 10.7703 77.8831 0 66.3968 0L8.69254 0.0787561L0 20.1648L57.1609 19.8505C61.6626 19.8505 71.4415 23.506 70.2773 33.8045Z" fill="#1C1C1C"/>
</svg>
