<svg width="91" height="84" viewBox="0 0 91 84" fill="none" xmlns="http://www.w3.org/2000/svg">
<path fill-rule="evenodd" clip-rule="evenodd" d="M55.9579 52.3184H24.3313C21.382 52.3184 18.7044 51.2963 16.7641 49.6454C14.7075 47.9553 13.4268 45.5576 13.4268 42.8846V32.5859C13.4268 29.9522 14.7075 27.5545 16.7641 25.8643C18.7044 24.2135 21.382 23.1914 24.3313 23.1914H55.9579C58.9072 23.1914 61.5847 24.2135 63.525 25.8643C65.5817 27.5545 66.8624 29.9522 66.8624 32.5859V42.8846C66.8624 45.5576 65.5817 47.9553 63.525 49.6454C61.5847 51.2963 58.9072 52.3184 55.9579 52.3184ZM24.3313 48.9379H55.9579C58.0922 48.9379 60.0323 48.2305 61.4296 47.0513C62.7102 45.9504 63.525 44.4962 63.525 42.8846V32.5859C63.525 31.0138 62.7102 29.5201 61.4296 28.4585C60.0323 27.2796 58.0922 26.572 55.9579 26.572H24.3313C22.1968 26.572 20.2565 27.2796 18.8597 28.4585C17.579 29.5201 16.7641 31.0138 16.7641 32.5859V42.8846C16.7641 44.4962 17.579 45.9504 18.8597 47.0513C20.2565 48.2305 22.1968 48.9379 24.3313 48.9379ZM49.6713 43.8279L62.7489 31.9571H58.2086L55.1429 34.7477L51.8445 31.6819L49.7102 33.6473L52.8534 36.7919L49.6713 39.7793V43.8279ZM39.97 36.3202V39.1111H45.2864C45.0922 39.5433 44.7043 39.8972 44.0835 40.2117C43.3849 40.5654 42.5698 40.7621 41.6386 40.7621H39.97V43.5527H41.8715C43.6953 43.5527 45.2474 43.0025 46.4506 41.8625C47.6923 40.7621 48.3131 39.386 48.3131 37.7747C48.3131 36.0843 47.8087 34.7086 46.8385 33.608C45.8296 32.5073 44.5879 31.9571 43.0355 31.9571L39.97 34.7477H41.6386C42.6088 34.7477 43.4237 34.9053 44.0445 35.1802C44.7043 35.4946 45.0922 35.8878 45.2864 36.3202H39.97ZM30.8893 36.3595V39.1503H34.9641C35.1967 39.1503 35.3909 39.2289 35.5074 39.386C35.6626 39.5041 35.7014 39.7007 35.7014 39.9364C35.7014 40.1724 35.6626 40.3688 35.5074 40.5261C35.3909 40.6833 35.1967 40.7621 34.9641 40.7621H30.8893V43.5527H35.5461C36.4387 43.5527 37.2147 43.1991 37.8356 42.5701C38.4564 41.9018 38.7671 41.037 38.7671 39.9364C38.7671 39.4255 38.6506 38.9932 38.4176 38.5608C38.146 38.1675 37.8356 37.8924 37.4476 37.7747C37.8356 37.578 38.1849 37.2635 38.4176 36.8706C38.6506 36.5166 38.7671 36.045 38.7671 35.5341C38.7671 34.4728 38.4564 33.608 37.8746 32.9397C37.2534 32.2716 36.4774 31.9571 35.5461 31.9571H33.955L30.8893 34.7477H34.9641C35.1967 34.7477 35.3909 34.8265 35.5074 34.9445C35.6626 35.1017 35.7014 35.2982 35.7014 35.5341C35.7014 35.7698 35.6626 35.9665 35.5074 36.1238C35.3909 36.2809 35.1967 36.3595 34.9641 36.3595H30.8893ZM23.7104 31.7998C22.1193 31.7998 20.8387 32.3107 19.8297 33.3328C18.7432 34.4334 18.1999 35.8878 18.1999 37.7352C18.1999 39.622 18.7432 41.0764 19.8297 42.1378C20.8387 43.1991 22.1193 43.71 23.7104 43.71C25.3013 43.71 26.6207 43.1991 27.6296 42.1378C28.6774 41.0764 29.2208 39.5827 29.2208 37.7352C29.2208 35.8878 28.7164 34.4334 27.6684 33.3328C26.6596 32.3107 25.3403 31.7998 23.7104 31.7998ZM26.194 37.7352C26.194 38.6787 25.9998 39.4256 25.612 39.9757C25.2237 40.6048 24.5639 40.9192 23.7104 40.9192C22.8566 40.9192 22.2358 40.6048 21.8089 39.9757C21.4595 39.4256 21.2656 38.6787 21.2656 37.7352C21.2656 36.8311 21.4595 36.0843 21.8089 35.5341C22.2358 34.9053 22.8566 34.5905 23.7104 34.5905C24.5639 34.5905 25.185 34.9053 25.612 35.5341C25.9998 36.1238 26.194 36.8311 26.194 37.7352Z" fill="#1C1C1C"/>
<path fill-rule="evenodd" clip-rule="evenodd" d="M3.2214 59.2771C3.02746 68.1608 9.27512 72.4059 17.3855 72.3667L81.5314 72.1307L61.5852 84.0015L65.1165 75.7865C48.2748 75.9042 31.4719 76.0614 14.6302 76.1401C5.4721 76.1794 -0.46519 67.7676 3.2214 59.2771ZM18.2393 64.0726L88.6715 63.7189L91 66.4704L88.1284 68.1213L17.502 68.4752C6.24834 68.5537 3.91996 57.6657 5.82147 53.3023L6.79147 51.1013C7.02441 58.491 11.0214 64.0726 18.2393 64.0726ZM10.2454 43.0039C11.0214 52.0053 15.9884 55.936 23.6719 55.9753L73.5762 56.054L76.4089 49.5681L85.4896 60.1027H21.6929C11.6035 60.1027 6.79147 51.2977 9.4303 44.9693L10.2454 43.0039Z" fill="#1C1C1C"/>
<path fill-rule="evenodd" clip-rule="evenodd" d="M70.2773 33.8045L78.1548 15.6446C80.2503 10.7703 77.8831 0 66.3968 0L8.69254 0.0787561L0 20.1648L57.1609 19.8505C61.6626 19.8505 71.4415 23.506 70.2773 33.8045Z" fill="#1C1C1C"/>
</svg>
