<svg width="44" height="28" viewBox="0 0 44 28" fill="none" xmlns="http://www.w3.org/2000/svg">
<g clip-path="url(#clip0_3032_6943)">
<path d="M17.6602 -0.104755C10.7079 0.0222607 6.62587 0.335567 5.34541 0.843632C4.18525 1.30936 3.21416 2.18154 2.63838 3.25694C1.89072 4.65412 1.49541 7.71944 1.40088 12.8424C1.33213 16.9323 1.55556 20.6497 2.02822 23.0037C2.53525 25.5694 3.93603 27.0344 6.35087 27.534C8.55087 27.9912 14.386 28.2622 22.0431 28.2537C29.8634 28.2537 35.4321 27.9997 37.7696 27.534C38.5345 27.3815 39.6173 26.8481 40.1845 26.3569C40.7774 25.8404 41.379 24.9513 41.6282 24.2231C42.3157 22.2247 42.7368 16.4073 42.5477 11.5807C42.2899 5.0267 41.7485 2.96904 39.9181 1.60573C39.0759 0.979116 38.4915 0.750486 37.1852 0.521858C35.5696 0.250891 31.6852 0.0137939 27.586 -0.0708847C22.7907 -0.164028 21.072 -0.172497 17.6602 -0.104755ZM23.2032 11.0049C26.0993 12.6477 28.4626 14.0279 28.4626 14.0702C28.454 14.138 18.0126 20.1247 17.9009 20.1247C17.8923 20.1247 17.8751 17.3981 17.8751 14.0702C17.8751 10.7424 17.8923 8.01581 17.9095 8.01581C17.9267 8.01581 20.3071 9.36218 23.2032 11.0049Z" fill="#1C1C1C"/>
</g>
<defs>
<clipPath id="clip0_3032_6943">
<rect width="44" height="28" fill="white"/>
</clipPath>
</defs>
</svg>
