<svg width="221" height="196" viewBox="0 0 221 196" fill="none" xmlns="http://www.w3.org/2000/svg">
<path fill-rule="evenodd" clip-rule="evenodd" d="M49.6283 85.5512C56.3913 85.5512 61.8739 80.0687 61.8739 73.3056C61.8739 66.5425 56.3913 61.0599 49.6283 61.0599C42.8652 61.0599 37.3826 66.5425 37.3826 73.3056C37.3826 80.0687 42.8652 85.5512 49.6283 85.5512ZM49.6283 93.715C60.9 93.715 70.0377 84.5774 70.0377 73.3056C70.0377 62.0338 60.9 52.8962 49.6283 52.8962C38.3565 52.8962 29.2189 62.0338 29.2189 73.3056C29.2189 84.5774 38.3565 93.715 49.6283 93.715Z" fill="#EAF5F7"/>
<path fill-rule="evenodd" clip-rule="evenodd" d="M82.9103 52.8941L84.1976 52.894L87.0306 52.8941C93.7738 52.9148 99.2342 58.3856 99.238 65.1327C99.2362 68.2659 98.0578 71.1378 96.1206 73.3026C98.0583 75.4675 99.237 78.3258 99.2388 81.4594C99.235 88.2193 93.7539 93.7121 86.9931 93.7121H82.9272H74.7634L74.7686 89.6302L74.7634 85.5491H86.9931C89.2475 85.5491 91.075 83.7216 91.075 81.4672C91.075 79.2128 89.2475 77.3853 86.9931 77.3853H82.9264H77.3731H74.7626L74.7475 77.3837V69.2213L84.1984 69.2208L87.0315 69.2208L87.0626 69.221C89.2845 69.1834 91.0742 67.3706 91.0742 65.1397C91.0742 62.8853 89.2467 61.0578 86.9923 61.0578H75.9751L74.7475 61.057L78.8285 56.9759L82.9103 52.8941Z" fill="#EAF5F7"/>
<path fill-rule="evenodd" clip-rule="evenodd" d="M107.824 61.0488L111.906 56.967L115.645 53.2279C125.131 54.9843 132.315 63.3007 132.315 73.295C132.315 84.5665 123.177 93.7039 111.906 93.7039H107.824V85.5404H111.906C117.238 85.5404 121.774 82.1324 123.455 77.3758H107.824V69.2122H123.454C121.773 64.4567 117.237 61.0497 111.906 61.0497L107.824 61.0488Z" fill="#EAF5F7"/>
<path fill-rule="evenodd" clip-rule="evenodd" d="M155.366 64.6569L143.614 52.9057L139.707 56.8128L137.842 58.6784L149.593 70.4298L137.844 82.1804L137.844 93.7257L178.661 52.9057H167.116L155.366 64.6569Z" fill="#EAF5F7"/>
<path fill-rule="evenodd" clip-rule="evenodd" d="M161.637 11.5343C155.478 11.0311 147.636 11.0268 136.738 11.0268H27.5723V5.09555e-07H136.985C147.583 -3.23529e-05 155.875 -5.86595e-05 162.535 0.544121C169.312 1.09779 174.884 2.24214 179.918 4.80741C188.218 9.03612 194.965 15.7837 199.194 24.083C201.759 29.1176 202.904 34.6897 203.457 41.4662C204.001 48.1266 204.001 56.4182 204.001 67.0159V71.6743L192.975 82.7011V67.2636C192.975 56.3653 192.97 48.5232 192.467 42.3642C191.969 36.2695 191.01 32.3101 189.369 29.0891C186.198 22.8646 181.137 17.8039 174.912 14.6324C171.691 12.9912 167.732 12.0323 161.637 11.5343Z" fill="#EAF5F7"/>
<path fill-rule="evenodd" clip-rule="evenodd" d="M42.3645 126.301C48.5236 126.804 56.3657 126.808 67.264 126.808L181.948 126.808L181.948 115.781L204.002 137.835L67.0165 137.835C56.4187 137.835 48.127 137.835 41.4666 137.291C34.69 136.737 29.118 135.593 24.0833 133.028C15.784 128.799 9.03647 122.051 4.80776 113.752C2.24248 108.717 1.09813 103.145 0.544468 96.3687C0.000278866 89.7083 0.000310108 81.4167 0.000341552 70.819L0.000341959 66.1606L11.0272 55.1338L11.0272 70.5714C11.0272 81.4696 11.0315 89.3118 11.5347 95.4708C12.0326 101.565 12.9915 105.525 14.6327 108.746C17.8043 114.97 22.8649 120.031 29.0894 123.203C32.3105 124.844 36.2699 125.803 42.3645 126.301Z" fill="#EAF5F7"/>
<path fill-rule="evenodd" clip-rule="evenodd" d="M2.56882 154.375C3.15965 156.336 3.89336 158.198 4.8075 159.992C9.03621 168.292 15.7838 175.039 24.0831 179.268C29.1177 181.833 34.6898 182.977 41.4664 183.531C48.1268 184.075 56.4184 184.075 67.0162 184.075H181.948V195.102L204.002 173.048L181.948 173.048L83.8104 173.048L61.5134 173.048C50.9157 173.048 42.624 173.048 35.9636 172.504C29.187 171.951 23.6149 170.806 18.5803 168.241C12.1682 164.974 6.68236 160.203 2.56882 154.375Z" fill="#EAF5F7"/>
<path fill-rule="evenodd" clip-rule="evenodd" d="M2.56836 132.321C3.15919 134.282 3.8929 136.144 4.80704 137.939C9.03575 146.238 15.7833 152.985 24.0826 157.214C29.1173 159.779 34.6893 160.924 41.4659 161.477C48.1263 162.022 56.418 162.022 67.0158 162.022H181.948H215.029L220.542 156.508L215.029 150.995H181.948L83.81 150.995H61.513C50.9152 150.995 42.6235 150.995 35.9631 150.451C29.1865 149.897 23.6145 148.753 18.5798 146.187C12.1677 142.92 6.68191 138.15 2.56836 132.321Z" fill="#EAF5F7"/>
</svg>
