<svg width="1352" height="12" viewBox="0 0 1352 12" fill="none" xmlns="http://www.w3.org/2000/svg">
<path d="M1346.73 11.2084L1351.87 6.30164C1352.05 6.13513 1352.05 5.86462 1351.87 5.69812L1346.73 0.791382C1346.56 0.624878 1346.27 0.624878 1346.1 0.791382L1345.47 1.3949C1345.29 1.5614 1345.29 1.83191 1345.47 1.99841L1348.87 5.24988L0.300222 4.2501C0.13445 4.24998 0 4.38433 0 4.5501V5.4501C0 5.6157 0.13421 5.74998 0.299809 5.7501L1348.87 6.74988L1345.47 10.0013C1345.29 10.1678 1345.29 10.4384 1345.47 10.6049L1346.1 11.2084C1346.27 11.3749 1346.56 11.3749 1346.73 11.2084Z" fill="#1C1C1C"/>
</svg>
