<svg width="80" height="80" viewBox="0 0 80 80" fill="none" xmlns="http://www.w3.org/2000/svg">
<path d="M55.7183 11.2099C54.4044 5.47207 51.1117 0.804598 50.6579 0.0500793C49.9403 1.12044 47.3142 5.24396 45.9792 9.80617C44.5211 14.9123 44.3065 19.4394 44.8095 23.8788C45.3091 28.3357 47.1964 32.9155 47.1964 32.9155C48.199 35.3018 49.7011 37.8812 50.679 39.1446C52.1125 37.2847 55.407 31.7398 56.4342 24.5105C57.0059 20.4747 57.0305 16.9478 55.7183 11.2099ZM50.6579 37.7058C50.0124 36.495 49.0098 34.1964 48.9148 30.6168C48.8902 27.1776 50.2745 24.2122 50.679 23.598C51.0396 24.2122 52.2322 26.7916 52.3746 30.3185C52.4714 33.7577 51.3246 36.4775 50.6579 37.7058ZM55.3366 20.9485C55.2874 23.1418 55.0253 25.458 54.6911 26.8442C54.8107 24.4579 54.524 21.1064 53.9752 18.4743C53.4265 15.8599 51.8733 11.4731 50.6333 9.45523C49.4883 11.3854 48.0776 15.1755 47.3389 18.4568C46.5966 21.7381 46.5755 25.7212 46.5755 26.9144C46.3785 25.9142 45.886 22.3171 46.0249 18.72C46.141 15.7546 46.8376 12.6839 47.2192 11.2801C48.6756 6.59509 50.3237 3.59456 50.6333 3.12078C50.9429 3.59456 53.0184 7.29695 54.0949 11.1748C55.166 15.0527 55.3824 18.7726 55.3366 20.9485Z" fill="#0079C2"/>
<path d="M52.8864 40.4782H42.8975V47.1636C42.9063 47.1636 42.9134 47.146 42.9222 47.146C45.2756 44.7948 49.0924 44.7948 51.4476 47.146C53.8011 49.4798 53.8011 53.2875 51.4476 55.6387C51.4371 55.6563 51.4265 55.6563 51.416 55.6738C51.4037 55.6738 51.3914 55.6914 51.3808 55.7089C49.0326 58.0251 45.9651 59.1832 42.8975 59.1832C39.8159 59.1832 36.7343 58.0251 34.3844 55.6738C30.2404 51.5503 29.7497 45.1457 32.9087 40.4782C33.3343 39.8465 33.8251 39.2499 34.3844 38.6884C36.7343 36.3371 39.8159 35.179 42.8975 35.179V19.106C31.0565 19.106 21.4581 28.6691 21.4581 40.4782C21.4581 52.2873 31.0565 61.8679 42.8975 61.8679C49.0713 61.8679 54.633 59.2534 58.5449 55.0948V40.4782H52.8864Z" fill="#0079C2"/>
</svg>
