<svg width="80" height="80" viewBox="0 0 80 80" fill="none" xmlns="http://www.w3.org/2000/svg">
<path d="M61.2786 18.0645H18.7097V61.2481H61.2786V18.0645Z" fill="#0073C1"/>
<path d="M21.2644 37.3812V42.2204H22.0227V38.0776H23.2571V37.3812H21.2644Z" fill="white"/>
<path d="M25.1442 38.2383L25.5145 40.6847H24.7915L25.1442 38.2383ZM24.6328 37.3812L23.8745 42.2204H24.5623L24.6857 41.3454H25.6027L25.7261 42.2204H26.4844L25.7438 37.3812H24.6328Z" fill="white"/>
<mask id="mask0_327_5785" style="mask-type:luminance" maskUnits="userSpaceOnUse" x="21" y="36" width="38" height="7">
<path d="M58.9319 36.5419H21.2644V42.274H58.9319V36.5419Z" fill="white"/>
</mask>
<g mask="url(#mask0_327_5785)">
<path d="M28.7416 38.5776C28.7416 38.3633 28.7063 38.2205 28.6358 38.1312C28.5652 38.0598 28.477 38.024 28.3536 38.024C28.2302 38.024 28.142 38.0598 28.0714 38.1312C28.0009 38.2026 27.9656 38.3276 27.9656 38.4883V39.0062H27.2603V38.5419C27.2603 38.149 27.3484 37.8455 27.5424 37.6312C27.7364 37.4169 28.0185 37.3098 28.3889 37.3098C28.7592 37.3098 29.0413 37.4169 29.2353 37.6312C29.4293 37.8455 29.5175 38.149 29.5175 38.5419V38.6669C29.5175 39.1847 29.3411 39.524 28.9884 39.6669C29.1824 39.7561 29.3235 39.8811 29.394 40.0597C29.4822 40.2383 29.5175 40.4526 29.5175 40.6847V41.0597C29.5175 41.4525 29.4293 41.7561 29.2353 41.9704C29.0413 42.1847 28.7592 42.2918 28.3889 42.2918C28.0185 42.2918 27.7364 42.1847 27.5424 41.9704C27.3484 41.7561 27.2603 41.4525 27.2603 41.0597V40.4526H27.9656V41.1133C27.9656 41.2918 28.0009 41.4168 28.0714 41.4882C28.142 41.5597 28.2302 41.5954 28.3536 41.5954C28.477 41.5954 28.5652 41.5597 28.6358 41.4882C28.7063 41.4168 28.7416 41.274 28.7416 41.0597V40.6847C28.7416 40.4526 28.7063 40.2918 28.6181 40.2026C28.5476 40.1133 28.4065 40.0597 28.2478 40.0597H28.142V39.3633H28.3007C28.4418 39.3633 28.5476 39.3276 28.6358 39.2562C28.7239 39.1847 28.7592 39.0419 28.7592 38.8633V38.5776H28.7416Z" fill="white"/>
</g>
<mask id="mask1_327_5785" style="mask-type:luminance" maskUnits="userSpaceOnUse" x="21" y="36" width="38" height="7">
<path d="M58.9319 36.5419H21.2644V42.274H58.9319V36.5419Z" fill="white"/>
</mask>
<g mask="url(#mask1_327_5785)">
<path d="M32.6388 40.4168V41.0597C32.6388 41.4525 32.5506 41.7561 32.3567 41.9704C32.1627 42.1847 31.8805 42.2918 31.5102 42.2918C31.1399 42.2918 30.8577 42.1847 30.6637 41.9704C30.4698 41.7561 30.3816 41.4525 30.3816 41.0597V38.5419C30.3816 38.149 30.4698 37.8455 30.6637 37.6312C30.8754 37.4348 31.1399 37.3276 31.5102 37.3276C31.8805 37.3276 32.1627 37.4348 32.3567 37.649C32.5506 37.8633 32.6388 38.1669 32.6388 38.5597V39.024H31.9334V38.5062C31.9334 38.3276 31.8982 38.2026 31.8276 38.1312C31.7571 38.0597 31.6689 38.024 31.5455 38.024C31.422 38.024 31.3339 38.0597 31.2633 38.1312C31.1751 38.2026 31.1399 38.3276 31.1399 38.4883V41.1132C31.1399 41.2918 31.1751 41.4168 31.2457 41.4882C31.3162 41.5597 31.4044 41.5954 31.5278 41.5954C31.6513 41.5954 31.7395 41.5597 31.81 41.4882C31.8805 41.4168 31.9158 41.2918 31.9158 41.1132V40.4168H32.6388Z" fill="white"/>
</g>
<mask id="mask2_327_5785" style="mask-type:luminance" maskUnits="userSpaceOnUse" x="21" y="36" width="38" height="7">
<path d="M58.9319 36.5419H21.2644V42.274H58.9319V36.5419Z" fill="white"/>
</mask>
<g mask="url(#mask2_327_5785)">
<path d="M33.3618 37.3812H35.6896V38.0776H34.9137V42.2204H34.1554V38.0776H33.3618V37.3812Z" fill="white"/>
</g>
<mask id="mask3_327_5785" style="mask-type:luminance" maskUnits="userSpaceOnUse" x="21" y="36" width="38" height="7">
<path d="M58.9319 36.5419H21.2644V42.274H58.9319V36.5419Z" fill="white"/>
</mask>
<g mask="url(#mask3_327_5785)">
<path d="M37.6293 37.3812C37.9996 37.3812 38.2818 37.4883 38.4758 37.6848C38.6521 37.8812 38.7579 38.1847 38.7579 38.5776V39.2026C38.7579 39.5954 38.6697 39.899 38.4758 40.0954C38.2994 40.2918 38.0173 40.399 37.6293 40.399H37.2766V42.2204H36.5183V37.3812H37.6293ZM37.259 38.0776V39.7204H37.6117C37.7351 39.7204 37.8233 39.6847 37.8762 39.6311C37.9467 39.5597 37.9643 39.4526 37.9643 39.274V38.5419C37.9643 38.3633 37.9291 38.2383 37.8762 38.1847C37.8056 38.1133 37.7175 38.0955 37.6117 38.0955H37.259V38.0776Z" fill="white"/>
</g>
<mask id="mask4_327_5785" style="mask-type:luminance" maskUnits="userSpaceOnUse" x="21" y="36" width="38" height="7">
<path d="M58.9319 36.5419H21.2644V42.274H58.9319V36.5419Z" fill="white"/>
</mask>
<g mask="url(#mask4_327_5785)">
<path d="M39.4988 38.5419C39.4988 38.149 39.6046 37.8455 39.7986 37.6312C39.9925 37.4169 40.2747 37.3098 40.645 37.3098C41.0154 37.3098 41.2975 37.4169 41.4915 37.6312C41.6855 37.8455 41.7913 38.149 41.7913 38.5419V41.0597C41.7913 41.4525 41.6855 41.7561 41.4915 41.9704C41.2975 42.1847 41.0154 42.2918 40.645 42.2918C40.2747 42.2918 39.9925 42.1847 39.7986 41.9704C39.6046 41.7561 39.4988 41.4525 39.4988 41.0597V38.5419ZM40.2394 41.1133C40.2394 41.2918 40.2747 41.4168 40.3452 41.4882C40.4158 41.5597 40.504 41.5954 40.6274 41.5954C40.7508 41.5954 40.839 41.5597 40.9095 41.4882C40.9801 41.4168 41.0154 41.2918 41.0154 41.1133V38.4883C41.0154 38.3097 40.9801 38.1847 40.9095 38.1133C40.839 38.0419 40.7508 38.0062 40.6274 38.0062C40.504 38.0062 40.4158 38.0419 40.3452 38.1133C40.2747 38.1847 40.2394 38.3097 40.2394 38.4883V41.1133Z" fill="white"/>
</g>
<mask id="mask5_327_5785" style="mask-type:luminance" maskUnits="userSpaceOnUse" x="21" y="36" width="38" height="7">
<path d="M58.9319 36.5419H21.2644V42.274H58.9319V36.5419Z" fill="white"/>
</mask>
<g mask="url(#mask5_327_5785)">
<path d="M43.5018 42.2204H42.7258V37.3812H43.3959V40.274L44.1719 37.3812H45.1241V42.2204H44.454V38.7205L43.5018 42.2204ZM44.7714 37.1134H43.1138V36.5419H44.7714V37.1134Z" fill="white"/>
</g>
<mask id="mask6_327_5785" style="mask-type:luminance" maskUnits="userSpaceOnUse" x="21" y="36" width="38" height="7">
<path d="M58.9319 36.5419H21.2644V42.274H58.9319V36.5419Z" fill="white"/>
</mask>
<g mask="url(#mask6_327_5785)">
<path d="M46.9053 42.2204H46.147V37.3812H48.5276V42.2204H47.7517V38.0776H46.9053V42.2204Z" fill="white"/>
</g>
<mask id="mask7_327_5785" style="mask-type:luminance" maskUnits="userSpaceOnUse" x="21" y="36" width="38" height="7">
<path d="M58.9319 36.5419H21.2644V42.274H58.9319V36.5419Z" fill="white"/>
</mask>
<g mask="url(#mask7_327_5785)">
<path d="M50.6615 37.3812C51.0318 37.3812 51.314 37.4883 51.508 37.6848C51.6843 37.8812 51.7901 38.1847 51.7901 38.5776V39.2026C51.7901 39.5954 51.702 39.899 51.508 40.0954C51.3316 40.2918 51.0495 40.399 50.6615 40.399H50.3088V42.2204H49.5505V37.3812H50.6615ZM50.3088 38.0776V39.7204H50.6615C50.785 39.7204 50.8731 39.6847 50.926 39.6311C50.9966 39.5597 51.0142 39.4526 51.0142 39.274V38.5419C51.0142 38.3633 50.9789 38.2383 50.926 38.1847C50.8555 38.1133 50.7673 38.0955 50.6615 38.0955H50.3088V38.0776Z" fill="white"/>
</g>
<mask id="mask8_327_5785" style="mask-type:luminance" maskUnits="userSpaceOnUse" x="21" y="36" width="38" height="7">
<path d="M58.9319 36.5419H21.2644V42.274H58.9319V36.5419Z" fill="white"/>
</mask>
<g mask="url(#mask8_327_5785)">
<path d="M52.5305 38.5419C52.5305 38.149 52.6363 37.8455 52.8303 37.6312C53.0243 37.4169 53.3064 37.3098 53.6768 37.3098C54.0471 37.3098 54.3292 37.4169 54.5232 37.6312C54.7172 37.8455 54.823 38.149 54.823 38.5419V41.0597C54.823 41.4525 54.7172 41.7561 54.5232 41.9704C54.3292 42.1847 54.0471 42.2918 53.6768 42.2918C53.3064 42.2918 53.0243 42.1847 52.8303 41.9704C52.6363 41.7561 52.5305 41.4525 52.5305 41.0597V38.5419ZM53.2888 41.1133C53.2888 41.2918 53.3241 41.4168 53.3946 41.4882C53.4651 41.5597 53.5533 41.5954 53.6768 41.5954C53.8002 41.5954 53.8884 41.5597 53.9589 41.4882C54.0295 41.4168 54.0647 41.2918 54.0647 41.1133V38.4883C54.0647 38.3097 54.0295 38.1847 53.9589 38.1133C53.8884 38.0419 53.8002 38.0062 53.6768 38.0062C53.5533 38.0062 53.4651 38.0419 53.3946 38.1133C53.3241 38.1847 53.2888 38.3097 53.2888 38.4883V41.1133Z" fill="white"/>
</g>
<mask id="mask9_327_5785" style="mask-type:luminance" maskUnits="userSpaceOnUse" x="21" y="36" width="38" height="7">
<path d="M58.9319 36.5419H21.2644V42.274H58.9319V36.5419Z" fill="white"/>
</mask>
<g mask="url(#mask9_327_5785)">
<path d="M57.3623 40.8275L57.8913 37.3812H58.9317V42.2204H58.2264V38.7562L57.6973 42.2204H56.9919L56.4276 38.7919V42.2204H55.7751V37.3812H56.8156L57.3623 40.8275Z" fill="white"/>
</g>
</svg>
