<svg width="24" height="24" viewBox="0 0 24 24" fill="none" xmlns="http://www.w3.org/2000/svg">
<path d="M11.5551 1.48203C7.27402 1.92676 3.79258 4.92305 2.7459 9.05586C2.52578 9.92734 2.46289 10.4844 2.46289 11.4996C2.46289 12.5148 2.52578 13.0719 2.7459 13.9434C3.64434 17.4967 6.40254 20.2863 9.93789 21.2207C10.8139 21.4543 11.4563 21.5352 12.476 21.5352C13.4822 21.5352 14.0168 21.4768 14.8658 21.2701C18.1766 20.466 20.8988 17.9953 21.9949 14.7924C22.3857 13.6424 22.5385 12.735 22.5385 11.4996C22.5385 11.0145 22.5115 10.4439 22.4756 10.2193C22.1432 7.91484 21.1953 5.99668 19.6006 4.39746C18.0598 2.85215 16.1416 1.88183 13.9809 1.54941C13.4148 1.46406 12.0852 1.42812 11.5551 1.48203ZM13.015 6.22129C13.2396 6.33359 13.4867 6.57617 13.599 6.80527C13.7203 7.04336 13.7248 7.63633 13.608 7.84746C13.3744 8.2832 12.9791 8.53476 12.5254 8.53476C12.1615 8.53476 11.9459 8.4584 11.7033 8.24726C11.0115 7.64082 11.2137 6.49082 12.0672 6.18086C12.3143 6.09101 12.7814 6.10898 13.015 6.22129ZM12.8309 9.75664C13.0779 9.82852 13.4508 10.2014 13.5227 10.4484C13.5631 10.5877 13.5766 11.3604 13.5766 13.4133C13.5766 16.0053 13.5676 16.2074 13.4912 16.3736C13.298 16.8049 12.9521 17.034 12.5074 17.034C12.0582 17.034 11.7123 16.8184 11.5281 16.4186L11.4203 16.1939V13.4088C11.4203 11.5805 11.4383 10.5652 11.4697 10.4529C11.5686 10.0846 12.0807 9.70273 12.4715 9.70273C12.5658 9.70273 12.7275 9.72519 12.8309 9.75664Z" fill="#ACACAC"/>
</svg>
