<svg width="80" height="80" viewBox="0 0 80 80" fill="none" xmlns="http://www.w3.org/2000/svg">
<g clip-path="url(#clip0_327_5781)">
<path d="M41.1809 59.2985V65.5245C41.1809 65.6402 41.2748 65.7329 41.3922 65.7097C42.8708 65.594 44.3023 65.3394 45.6635 64.8997C45.7339 64.8765 45.8043 64.807 45.8043 64.7146V49.4384C45.8043 49.3457 45.7339 49.2533 45.6401 49.2533C44.2554 49.0912 42.8237 48.9987 41.3922 48.9524C41.2748 48.9524 41.1809 49.0449 41.1809 49.1376V54.6461H38.6932V49.1376C38.6932 49.0217 38.5993 48.9292 38.482 48.9524C37.0269 48.9987 35.6188 49.0912 34.2341 49.2301C34.1402 49.2301 34.0698 49.3227 34.0698 49.4152V64.7376C34.0698 64.8302 34.1168 64.8997 34.2106 64.9227C35.5718 65.3162 37.0035 65.594 38.482 65.6867C38.5993 65.6867 38.6932 65.594 38.6932 65.5015V59.252H41.1809V59.2985Z" fill="#2B5E4A"/>
<path d="M32.7567 49.4615C30.9965 49.716 29.2833 50.0401 27.6874 50.48C27.6404 50.503 27.5935 50.5262 27.57 50.5957L25.5752 54.6692H25.2466V51.4751C25.2466 51.3364 25.1058 51.2437 24.9885 51.29C23.815 51.7067 22.7119 52.1464 21.6793 52.6555C21.4681 52.7482 21.2803 52.8639 21.0926 52.9566C20.9987 53.0028 20.9518 53.1185 21.0222 53.2111C22.5477 56.058 24.4017 58.5346 26.5609 60.5252C26.6548 60.6177 26.819 60.5944 26.866 60.4788L28.0629 58.0948H28.368V61.937C28.368 62.0064 28.3915 62.0527 28.4384 62.0989C29.7527 63.071 31.1843 63.858 32.7098 64.4598C32.8271 64.506 32.9679 64.4136 32.9679 64.2747V49.6466C32.9914 49.5309 32.8741 49.4384 32.7567 49.4615Z" fill="#2B5E4A"/>
<path d="M57.0227 52.4472C56.5533 52.1464 54.9574 51.2669 53.9717 50.9197C53.8779 50.8965 53.784 50.9197 53.7371 51.0122C53.385 51.7297 51.9299 54.6692 51.9299 54.6692H51.6013L51.578 50.4568C51.578 50.3641 51.5076 50.2947 51.4371 50.2716C50.0758 49.9476 48.6443 49.6698 47.1892 49.4615C47.0719 49.4384 46.9546 49.5309 46.9546 49.6466V64.182C46.9546 64.3209 47.0952 64.4136 47.2361 64.3673C48.7616 63.7423 50.1933 62.9323 51.5076 61.96C51.5545 61.9138 51.578 61.8676 51.578 61.7981V59.2983C52.4228 59.2289 53.3146 59.5529 53.8308 60.039C54.8401 59.0437 55.8962 57.8633 56.7646 56.6598C56.835 56.5904 56.8114 56.4747 56.741 56.4052C56.436 56.1506 56.0605 55.8728 55.6849 55.6645L57.1166 52.702C57.1635 52.6093 57.1167 52.5167 57.0227 52.4472Z" fill="#2B5E4A"/>
<path d="M47.5652 17.2429C47.6825 17.1503 47.659 16.9652 47.5183 16.8957C45.8753 16.2014 44.1152 15.7153 42.308 15.4839C40.4306 21.5248 40.4071 28.7 40.1489 46.9618C40.3133 46.9618 40.501 46.9618 40.6652 46.9618C41.2754 32.8662 41.4632 21.386 47.5652 17.2429Z" fill="#1D2126"/>
<path d="M44.2559 33.4216C46.509 26.7094 50.1232 23.3996 55.4976 23.1681C55.6618 23.1681 55.7322 22.9598 55.6383 22.8441C54.324 21.3165 52.8456 19.9972 51.2497 18.8862C46.0865 20.6453 43.8099 25.0429 42.5192 33.0744C41.9325 36.824 41.4866 41.4993 41.2283 46.9849C41.3926 46.9849 41.5804 46.9849 41.7447 47.0081C42.0262 42.6103 43.0823 36.9397 44.2559 33.4216Z" fill="#1D2126"/>
<path d="M45.3821 38.6987C49.5361 30.7367 56.835 29.672 60.8717 33.6068C61.0124 33.7456 61.2472 33.6068 61.2003 33.4216C60.5432 30.8756 59.5573 28.4916 58.2666 26.3391C48.9963 23.8162 43.3638 34.2779 42.2842 47.0543C42.4484 47.0543 42.6363 47.0775 42.8005 47.0775C43.3167 43.5594 43.833 41.6382 45.3821 38.6987Z" fill="#1D2126"/>
<path d="M61.6232 37.7731C58.1264 33.6762 51.602 32.6347 47.1195 38.259C45.5 40.2727 43.9276 43.2354 43.3174 47.1008C43.5051 47.1008 43.6695 47.1238 43.8572 47.1238C44.796 43.2586 47.2368 41.2217 49.5367 40.5505C54.8408 38.9535 60.1448 42.7725 60.614 47.2164C60.6376 47.4016 60.9426 47.3784 60.9897 47.1932C61.4824 45.0869 61.7641 42.8651 61.7641 40.5505C61.7405 39.6016 61.6937 38.6757 61.6232 37.7731Z" fill="#1D2126"/>
<path d="M37.4972 15.5073C35.6901 15.7387 33.9299 16.2016 32.2871 16.9191C32.1463 16.9886 32.1228 17.1737 32.2402 17.2663C38.3421 21.3862 38.53 32.8664 39.1167 46.9852C39.2809 46.9852 39.4686 46.9852 39.633 46.9852C39.3748 28.7234 39.3748 21.5482 37.4972 15.5073Z" fill="#1D2126"/>
<path d="M37.2854 33.0974C36.0182 25.0659 33.7182 20.6683 28.555 18.9092C26.9591 20.0202 25.4806 21.3395 24.1663 22.8671C24.0724 22.9828 24.1429 23.168 24.3071 23.1911C29.6815 23.3995 33.3192 26.7093 35.5723 33.4215C36.7457 36.9165 37.7784 42.6104 38.0834 47.0079C38.2478 47.0079 38.4355 46.9847 38.5997 46.9847C38.3182 41.5224 37.8957 36.847 37.2854 33.0974Z" fill="#1D2126"/>
<path d="M21.5616 26.3391C20.2708 28.4685 19.2851 30.8525 18.6279 33.4216C18.581 33.6068 18.8157 33.7457 18.9565 33.6068C23.0166 29.6952 30.2921 30.7599 34.4461 38.6989C35.9716 41.6152 36.5114 43.5362 37.0277 47.0543C37.1921 47.0543 37.3798 47.0313 37.544 47.0313C36.4644 34.2779 30.8318 23.8162 21.5616 26.3391Z" fill="#1D2126"/>
<path d="M32.7091 38.259C28.2265 32.6347 21.6787 33.6762 18.2053 37.7731C18.1114 38.6757 18.0645 39.6016 18.0645 40.5505C18.0645 42.8419 18.3226 45.0639 18.8389 47.1932C18.8859 47.3784 19.191 47.4016 19.2144 47.2164C19.8481 42.8419 24.6123 39.1617 30.2918 40.5505C32.6153 41.1061 35.0091 43.2586 35.9713 47.1238C36.1591 47.1008 36.3234 47.1008 36.5111 47.1008C35.9009 43.2354 34.3285 40.2727 32.7091 38.259Z" fill="#1D2126"/>
</g>
<defs>
<clipPath id="clip0_327_5781">
<rect width="43.871" height="50.3226" fill="white" transform="translate(18.0645 15.4839)"/>
</clipPath>
</defs>
</svg>
