<svg width="12" height="16" viewBox="0 0 12 16" fill="none" xmlns="http://www.w3.org/2000/svg">
<path d="M6.90626 0.0466156C6.09063 0.187241 5.45313 0.512241 4.89063 1.07787C4.29063 1.67474 3.93751 2.40912 3.84688 3.24349C3.80001 3.67474 3.80001 10.2122 3.84688 10.4997C3.92501 10.981 4.11251 11.3591 4.45313 11.7029C4.81563 12.0716 5.23126 12.2779 5.74376 12.3404C6.90313 12.4872 7.96251 11.6747 8.15313 10.4966C8.17501 10.3747 8.18751 9.54349 8.18751 8.32474C8.18751 6.21849 8.18438 6.18412 8.03126 5.96849C7.91876 5.80912 7.73438 5.71224 7.50938 5.69349C7.34063 5.68099 7.29063 5.69037 7.14063 5.76537C6.93126 5.86849 6.80001 6.03099 6.75313 6.25287C6.73126 6.35599 6.71876 7.08724 6.71876 8.35287C6.71876 9.51849 6.70626 10.3404 6.68751 10.406C6.61563 10.6685 6.28751 10.906 6.00001 10.906C5.70938 10.906 5.38438 10.6654 5.31251 10.3997C5.29063 10.3247 5.28438 9.02474 5.28751 6.74349L5.29688 3.20287L5.38438 2.95287C5.57813 2.40599 5.98438 1.93412 6.47501 1.69349C6.80938 1.52787 7.06563 1.46849 7.45313 1.46849C7.84376 1.46849 8.09688 1.52787 8.43751 1.69349C8.65313 1.79974 8.75626 1.87787 8.98438 2.10912C9.30626 2.43099 9.45938 2.69349 9.56251 3.10599C9.62188 3.34662 9.62501 3.46224 9.62501 7.32162C9.62501 11.1435 9.62188 11.2966 9.56251 11.5872C9.37501 12.5091 8.91251 13.256 8.19063 13.7997C7.53126 14.2935 6.82188 14.531 6.00001 14.531C5.03126 14.531 4.17188 14.1872 3.47501 13.5185C2.98438 13.0497 2.66251 12.4841 2.45938 11.7341C2.39376 11.4841 2.39376 11.4622 2.37501 7.48412C2.35938 3.71849 2.35626 3.47787 2.30313 3.35912C2.08751 2.88412 1.49063 2.76537 1.12813 3.12787C0.887509 3.36849 0.903134 3.07474 0.915634 7.53412C0.928134 11.7779 0.921884 11.5716 1.07813 12.1872C1.48751 13.8185 2.75626 15.181 4.37501 15.7279C5.47813 16.1029 6.73438 16.0779 7.81563 15.6591C9.35938 15.0622 10.5375 13.7341 10.9344 12.1404C11.0781 11.556 11.0781 11.5872 11.0781 7.28099C11.0781 3.45287 11.075 3.18724 11.0219 2.93724C10.8094 1.95599 10.2688 1.14974 9.45938 0.612241C8.71251 0.115366 7.74688 -0.0971336 6.90626 0.0466156Z" fill="#2C9EAE"/>
</svg>
