<svg width="113" height="31" viewBox="0 0 113 31" fill="none" xmlns="http://www.w3.org/2000/svg">
<path fill-rule="evenodd" clip-rule="evenodd" d="M15.3649 24.3921C20.4559 24.3921 24.583 20.297 24.583 15.2455C24.583 10.194 20.4559 6.09895 15.3649 6.09895C10.274 6.09895 6.1469 10.194 6.1469 15.2455C6.1469 20.297 10.274 24.3921 15.3649 24.3921ZM15.3649 30.4898C23.8499 30.4898 30.7283 23.6647 30.7283 15.2455C30.7283 6.82636 23.8499 0.00124656 15.3649 0.00124656C6.87998 0.00124656 0.00154842 6.82636 0.00154842 15.2455C0.00154842 23.6647 6.87998 30.4898 15.3649 30.4898Z" fill="#1C1C1C"/>
<path fill-rule="evenodd" clip-rule="evenodd" d="M40.4172 -0.000313768L41.3862 -0.000367351L43.5188 -0.000323513C48.5947 0.0151057 52.7051 4.10142 52.708 9.14098C52.7067 11.4812 51.8196 13.6263 50.3613 15.2433C51.8199 16.8603 52.7073 18.9952 52.7086 21.3358C52.7058 26.3849 48.5798 30.4876 43.4906 30.4876H40.4299H34.2845L34.2884 27.4387L34.2845 24.3905H43.4906C45.1876 24.3905 46.5632 23.0254 46.5632 21.3416C46.5632 19.6578 45.1876 18.2928 43.4906 18.2928H40.4293H36.249H34.2839L34.2725 18.2916V12.1949L41.3868 12.1945L43.5194 12.1945L43.5429 12.1946C45.2154 12.1666 46.5626 10.8125 46.5626 9.1462C46.5626 7.46236 45.1869 6.09734 43.4899 6.09734H35.1966L34.2725 6.09672L37.3446 3.04849L40.4172 -0.000313768Z" fill="#1C1C1C"/>
<path fill-rule="evenodd" clip-rule="evenodd" d="M59.171 6.09042L62.2436 3.04164L65.0584 0.248812C72.1991 1.56067 77.607 7.77241 77.607 15.2374C77.607 23.6564 70.7286 30.4813 62.2436 30.4813H59.171V24.3838H62.2436C66.2575 24.3838 69.6722 21.8382 70.9374 18.2854H59.171V12.1879H70.9369C69.6712 8.63587 66.2569 6.0911 62.2436 6.0911L59.171 6.09042Z" fill="#1C1C1C"/>
<path fill-rule="evenodd" clip-rule="evenodd" d="M94.9637 8.78516L86.1179 0.00789215L83.1768 2.92622L81.7725 4.31963L90.6185 13.0971L81.7739 21.8739L81.7739 30.4974L112.5 0.00789215H103.809L94.9637 8.78516Z" fill="#1C1C1C"/>
</svg>
