<svg width="320" height="17" viewBox="0 0 320 17" fill="none" xmlns="http://www.w3.org/2000/svg">
<path d="M314.732 13.7085L319.873 8.80176C320.047 8.63525 320.047 8.36475 319.873 8.19824L314.732 3.2915C314.558 3.125 314.275 3.125 314.1 3.2915L313.468 3.89502C313.293 4.06152 313.293 4.33203 313.468 4.49854L316.874 7.75H0.3C0.134315 7.75 0 7.88431 0 8.05V8.95C0 9.11569 0.1343 9.25 0.299985 9.25H316.874L313.468 12.5015C313.293 12.668 313.293 12.9385 313.468 13.105L314.1 13.7085C314.275 13.875 314.558 13.875 314.732 13.7085Z" fill="#ACACAC"/>
</svg>
