<svg width="81" height="80" viewBox="0 0 81 80" fill="none" xmlns="http://www.w3.org/2000/svg">
<path d="M61.9452 18.0645H19.3763V61.2481H61.9452V18.0645Z" fill="#ED1A3A"/>
<path d="M55.0702 22.3664C54.0919 22.3664 53.3511 23.0248 52.9819 23.816L47.622 32.7677C47.2503 33.5956 46.979 34.5257 46.979 35.1414C46.979 35.6915 47.0534 36.1776 47.2521 36.6256L53.0502 50.6769H30.535C29.7245 50.6769 29.0556 49.8511 29.0556 49.0887V24.8845C28.8853 21.5756 24.1972 21.5773 24.094 24.9884L24.1964 50.6769C24.1964 53.4697 26.3248 55.7071 29.0556 55.7071H59.753L52.2707 36.2849C52.0642 35.5618 51.9722 34.906 52.4755 34.0441L57.4258 25.8778C57.4955 25.7075 57.5965 24.9875 57.5965 24.7805C57.4984 23.2977 56.353 22.301 55.0702 22.3664ZM42.9164 22.378C41.7123 22.3862 40.5095 23.23 40.5095 24.8845V42.2045C40.5095 44.7196 37.1752 44.5127 37.1752 42.2045V24.8845C37.1752 21.5756 32.3501 21.5756 32.3501 24.8845V42.3431C32.3501 46.3358 35.289 48.9905 38.7969 48.9905C42.4002 48.9905 45.3289 46.3358 45.3289 42.3431V24.8845C45.3289 23.1973 44.1205 22.3698 42.9164 22.378Z" fill="white"/>
</svg>
