<svg width="60" height="79" viewBox="0 0 60 79" fill="none" xmlns="http://www.w3.org/2000/svg">
<path d="M33.4143 61.0081C34.1008 60.1002 35.1585 59.5802 36.2718 59.3434C49.8296 56.4597 60 44.4176 60 30C60 13.4315 46.5685 0 30 0C13.4315 0 0 13.4315 0 30C0 44.4697 10.244 56.5467 23.8753 59.3743C24.9952 59.6066 26.0608 60.1251 26.7505 61.0375C28.4076 63.2298 29.545 65.7817 30.0628 68.5C30.5987 65.7717 31.7486 63.2113 33.4143 61.0081Z" fill="#2C9EAE"/>
<circle cx="30" cy="76" r="3" fill="#2C9EAE"/>
<path fill-rule="evenodd" clip-rule="evenodd" d="M15.5484 33.8934C17.3869 33.8934 18.8772 32.4146 18.8772 30.5905C18.8772 28.7663 17.3869 27.2875 15.5484 27.2875C13.71 27.2875 12.2197 28.7663 12.2197 30.5905C12.2197 32.4146 13.71 33.8934 15.5484 33.8934ZM15.5484 36.0953C18.6125 36.0953 21.0963 33.6307 21.0963 30.5905C21.0963 27.5502 18.6125 25.0856 15.5484 25.0856C12.4844 25.0856 10.0006 27.5502 10.0006 30.5905C10.0006 33.6307 12.4844 36.0953 15.5484 36.0953Z" fill="#FEFEFE"/>
<path fill-rule="evenodd" clip-rule="evenodd" d="M24.5948 25.0858L24.9447 25.0858L25.7148 25.0858C27.5478 25.0914 29.0321 26.567 29.0331 28.3868C29.0326 29.2319 28.7123 30.0066 28.1857 30.5904C28.7124 31.1744 29.0329 31.9453 29.0333 32.7905C29.0323 34.6138 27.5424 36.0953 25.7046 36.0953H24.5994H22.3802L22.3816 34.9944L22.3802 33.8936H25.7046C26.3174 33.8936 26.8142 33.4007 26.8142 32.7926C26.8142 32.1846 26.3174 31.6917 25.7046 31.6917H24.5991H23.0896H22.38L22.3759 31.6912V29.4896L24.9449 29.4895L25.715 29.4895L25.7235 29.4895C26.3275 29.4794 26.814 28.9904 26.814 28.3887C26.814 27.7807 26.3172 27.2878 25.7044 27.2878H22.7096L22.3759 27.2875L23.4852 26.1868L24.5948 25.0858Z" fill="#FEFEFE"/>
<path fill-rule="evenodd" clip-rule="evenodd" d="M31.369 27.2859L32.4786 26.1849L33.495 25.1764C36.0736 25.6501 38.0265 27.8933 38.0265 30.589C38.0265 33.6291 35.5426 36.0937 32.4786 36.0937H31.369V33.8918H32.4786C33.9281 33.8918 35.1611 32.9726 35.618 31.6896H31.369V29.4877H35.6178C35.1608 28.2051 33.9279 27.2861 32.4786 27.2861L31.369 27.2859Z" fill="#FEFEFE"/>
<path fill-rule="evenodd" clip-rule="evenodd" d="M44.2948 28.2587L41.1004 25.0892L40.0384 26.143L39.5312 26.6462L42.7257 29.8158L39.5318 32.9852L39.5318 36.0993L50.6272 25.0892H47.4888L44.2948 28.2587Z" fill="#FEFEFE"/>
</svg>
