<svg width="32" height="32" viewBox="0 0 32 32" fill="none" xmlns="http://www.w3.org/2000/svg">
<path d="M3.38126 14.3496C2.92473 14.3496 2.55466 14.72 2.55469 15.1765L2.55472 16.8298C2.55472 17.2863 2.92484 17.6565 3.3814 17.6565L28.6109 17.6505C29.0675 17.6505 29.4377 17.2803 29.4376 16.8238L29.4376 15.1704C29.4376 14.7139 29.0675 14.3438 28.6109 14.3438L3.38126 14.3496Z" fill="#1C1C1C"/>
<path d="M3.38126 3.6829C2.92473 3.68287 2.55466 4.05323 2.55469 4.50976L2.55472 6.1631C2.55472 6.6196 2.92484 6.98972 3.3814 6.98978L28.6109 6.98374C29.0675 6.98377 29.4377 6.61355 29.4376 6.15702L29.4376 4.50369C29.4376 4.04719 29.0675 3.67706 28.6109 3.677L3.38126 3.6829Z" fill="#1C1C1C"/>
<path d="M16.7145 25.0164C16.258 25.0164 15.8879 25.3867 15.8879 25.8433L15.888 27.4966C15.888 27.9531 16.2581 28.3232 16.7147 28.3233L28.6108 28.3172C29.0674 28.3173 29.4376 27.9471 29.4376 27.4905L29.4375 25.8372C29.4375 25.3807 29.0674 25.0106 28.6108 25.0105L16.7145 25.0164Z" fill="#1C1C1C"/>
</svg>
