<svg width="24" height="17" viewBox="0 0 24 17" fill="none" xmlns="http://www.w3.org/2000/svg">
<path d="M16.0981 16.3127L23.8089 8.95261C24.0707 8.70285 24.0707 8.29709 23.8089 8.04733L16.0981 0.687225C15.8363 0.437469 15.4118 0.437469 15.15 0.687225L14.2017 1.5925C13.9399 1.84225 13.9397 2.24802 14.2015 2.49777L19.3114 7.37497H0.45C0.201472 7.37497 0 7.57644 0 7.82497V9.17497C0 9.4235 0.201472 9.62497 0.45 9.62497H19.3114L14.2017 14.5022C13.9399 14.7519 13.9399 15.1577 14.2017 15.4074L15.15 16.3127C15.4118 16.5625 15.8363 16.5625 16.0981 16.3127Z" fill="#1C1C1C"/>
</svg>
