<svg width="20" height="20" viewBox="0 0 20 20" fill="none" xmlns="http://www.w3.org/2000/svg">
<path d="M3.7811 0.106465C2.51235 0.287715 1.32485 1.17521 0.731102 2.37521C0.268602 3.32521 0.156102 3.87521 0.162352 5.21896C0.168602 6.15021 0.187352 6.42521 0.293602 6.81271C0.512352 7.60021 0.787352 8.23771 1.3311 9.21896C4.27485 14.519 8.8061 18.4752 13.2186 19.5877C14.3061 19.8565 15.1124 19.9502 15.7374 19.8752C16.9061 19.7252 17.8561 19.269 18.6936 18.4377C19.1374 18.0002 19.2811 17.8065 19.4874 17.3752C19.8061 16.7002 19.8999 16.294 19.8624 15.7002C19.8311 15.1502 19.6811 14.769 19.3749 14.4127C19.1311 14.1377 15.8811 11.8065 15.3749 11.5502C14.8686 11.2877 14.3936 11.2065 13.9561 11.3002C13.4811 11.4002 13.0311 11.6815 12.3811 12.294L11.8374 12.8002L11.4686 12.544C10.1061 11.619 8.36235 9.87521 7.46235 8.55646L7.17485 8.13771L7.7436 7.50021C8.7561 6.36896 8.92485 5.75021 8.48735 4.73771C8.3561 4.42521 6.0186 1.07521 5.69985 0.731465C5.31235 0.325215 4.37485 0.0189649 3.7811 0.106465Z" fill="#2C9EAE"/>
</svg>
