<svg width="80" height="80" viewBox="0 0 80 80" fill="none" xmlns="http://www.w3.org/2000/svg">
<path d="M36.8344 0.0427017C30.5366 0.62719 24.573 2.53093 19.4613 5.62035C8.98726 11.9328 2.17164 22.1696 0.300689 34.3435C-0.10023 37.0154 -0.10023 43.0273 0.300689 45.6992C2.58927 60.5618 12.3951 72.6021 26.3938 77.7122C30.854 79.3487 34.763 80 40.0084 80C44.2347 80 46.2894 79.7662 49.9478 78.8477C64.0969 75.2907 75.4061 63.9017 78.8975 49.7071C79.7828 46.1167 80 44.1962 80 40.0214C80 35.8465 79.7828 33.926 78.8975 30.3356C75.3894 16.0408 63.9465 4.60167 49.6638 1.12817C48.5446 0.860977 46.824 0.510292 45.8551 0.359993C44.1679 0.109505 38.388 -0.0908966 36.8344 0.0427017ZM43.4496 3.4661C58.0497 4.88557 70.3612 14.7383 74.9384 28.7158C79.1647 41.5744 75.8405 55.7857 66.3354 65.5549C62.0756 69.9135 57.2479 72.9695 51.6851 74.8231C40.1587 78.664 27.8639 76.6768 18.0079 69.4125C15.8864 67.8261 12.1445 64.1021 10.5909 61.9812C6.51493 56.4704 4.09271 50.1747 3.44122 43.4615C2.50574 33.9594 5.57945 23.9564 11.6768 16.6754C13.2136 14.8218 16.2038 11.9829 18.0581 10.6135C25.4249 5.13605 34.4957 2.59773 43.4496 3.4661Z" fill="#FEFEFE"/>
<path d="M32.5167 28.5666C31.6667 29.0333 31.6834 28.85 31.6667 39.95C31.6667 47.65 31.7167 50.4333 31.8667 50.75C32.0834 51.2333 32.7834 51.6666 33.3334 51.6666C33.5167 51.6666 38.3834 49.3166 44.1334 46.4333C55.0334 40.9833 55.0001 41 55.0001 40C55.0001 39 55.0334 39.0166 44.1334 33.5666C38.3834 30.6833 33.5001 28.3333 33.3001 28.3333C33.0834 28.35 32.7334 28.45 32.5167 28.5666ZM49.5001 40C49.5001 40.05 46.2334 41.7166 42.2501 43.7166L35.0001 47.3333V40V32.6666L42.2501 36.2833C46.2334 38.2833 49.5001 39.95 49.5001 40Z" fill="#FEFEFE"/>
</svg>
