<svg width="22" height="22" viewBox="0 0 22 22" fill="none" xmlns="http://www.w3.org/2000/svg">
<path d="M12.2394 9.75678V1.538C12.2394 1.19558 11.9618 0.91799 11.6194 0.91799L10.3794 0.917969C10.037 0.917947 9.75934 1.19561 9.75936 1.538L9.75938 9.76134L1.53594 9.76121C1.19355 9.76118 0.915994 10.039 0.916016 10.3813L0.916037 11.6214C0.916037 11.9637 1.19363 12.2413 1.53605 12.2414H9.75483V20.4601C9.75487 20.8026 10.0325 21.0802 10.3748 21.0802L11.6148 21.0802C11.9572 21.0802 12.235 20.8027 12.235 20.4603L12.2349 12.2368L20.4582 12.2368C20.8006 12.2369 21.0782 11.9592 21.0782 11.6168L21.0782 10.3768C21.0782 10.0344 20.8006 9.75682 20.4582 9.75678H12.2394Z" fill="#1C1C1C"/>
</svg>
