<svg width="24" height="17" viewBox="0 0 24 17" fill="none" xmlns="http://www.w3.org/2000/svg">
<path d="M7.90188 0.687292L0.191129 8.0474C-0.0707123 8.29716 -0.0707124 8.70292 0.191128 8.95267L7.90188 16.3128C8.16372 16.5625 8.58816 16.5625 8.85 16.3128L9.7983 15.4075C10.0601 15.1578 10.0603 14.752 9.79849 14.5022L4.68856 9.62504L23.55 9.62504C23.7985 9.62504 24 9.42357 24 9.17504L24 7.82504C24 7.57651 23.7985 7.37504 23.55 7.37504L4.68856 7.37504L9.7983 2.49784C10.0601 2.24808 10.0601 1.84232 9.7983 1.59257L8.85 0.687292C8.58816 0.437537 8.16372 0.437537 7.90188 0.687292Z" fill="#ACACAC"/>
</svg>
