<svg width="81" height="80" viewBox="0 0 81 80" fill="none" xmlns="http://www.w3.org/2000/svg">
<path fill-rule="evenodd" clip-rule="evenodd" d="M20.2195 28.582H25.2246V45.5163L20.2195 41.1096V28.582Z" fill="#241C24"/>
<path fill-rule="evenodd" clip-rule="evenodd" d="M26.2065 23.0038H31.0129V50.9983L26.2065 46.3919V23.0038Z" fill="#241C24"/>
<path fill-rule="evenodd" clip-rule="evenodd" d="M31.9956 17.4256H36.901V43.9488H31.9956V17.4256Z" fill="#241C24"/>
<path fill-rule="evenodd" clip-rule="evenodd" d="M37.8784 11.8468H42.98V38.4681H37.8784V11.8468Z" fill="#241C24"/>
<path fill-rule="evenodd" clip-rule="evenodd" d="M43.6667 17.1291H48.5735V43.9487H43.6667V17.1291Z" fill="#241C24"/>
<path fill-rule="evenodd" clip-rule="evenodd" d="M49.751 22.901H54.5573V46.2951L49.751 50.9983V22.901Z" fill="#241C24"/>
<path fill-rule="evenodd" clip-rule="evenodd" d="M55.4375 28.4832H60.3469V40.7195L55.4375 45.5163V28.4832Z" fill="#241C24"/>
<path fill-rule="evenodd" clip-rule="evenodd" d="M31.9956 44.5405H36.901V69.0994H31.9956V44.5405Z" fill="#B3B31C"/>
<path fill-rule="evenodd" clip-rule="evenodd" d="M37.8784 39.2549H42.6834V69.0994H37.8784V39.2549Z" fill="#B3B31C"/>
<path fill-rule="evenodd" clip-rule="evenodd" d="M43.6667 44.634H48.5735V69.0994H43.6667V44.634Z" fill="#B3B31C"/>
</svg>
