<svg width="24" height="24" viewBox="0 0 24 24" fill="none" xmlns="http://www.w3.org/2000/svg">
<g clip-path="url(#clip0_4006_603)">
<path d="M9.21094 0.121874C6.9 0.435936 4.73438 1.5 3.10313 3.13125C0.445316 5.78906 -0.595309 9.61406 0.351566 13.2469C1.32188 16.9687 4.31719 19.9172 8.06719 20.8312C8.95782 21.0469 9.55313 21.1125 10.5938 21.1125C11.6859 21.1125 12.2484 21.0422 13.2609 20.7844C14.625 20.4375 16.0969 19.7062 17.1281 18.8672L17.3953 18.6469L18.5063 19.7297C19.1156 20.3203 20.2828 21.4734 21.0938 22.2891C21.9047 23.1047 22.65 23.8125 22.7438 23.8641C23.0625 24.0281 23.5406 23.9437 23.775 23.6859C23.8922 23.5594 24 23.2781 24 23.1094C24 22.7719 23.9016 22.6594 21.2531 20.0109L18.6516 17.4094L18.8719 17.1328C19.8234 15.9656 20.6203 14.2734 20.9297 12.7687C21.0984 11.9344 21.1453 11.4516 21.1453 10.5469C21.1453 8.79375 20.7703 7.26094 19.9641 5.72812C18.3422 2.62031 15.3516 0.548435 11.8594 0.112499C11.1984 0.0328102 9.84375 0.0328102 9.21094 0.121874ZM11.8594 1.87031C13.8047 2.16562 15.4547 2.99062 16.8281 4.35937C18.5156 6.05156 19.4109 8.20312 19.4109 10.575C19.4109 13.0125 18.4734 15.2156 16.7297 16.8984C15.3844 18.1969 13.8234 18.975 11.9297 19.2937C11.3063 19.3969 9.90938 19.4016 9.25313 19.2984C7.35 18.9937 5.67657 18.1406 4.3125 16.7812C2.98594 15.45 2.17032 13.8516 1.84688 11.9297C1.73438 11.2781 1.73438 9.89531 1.84688 9.23437C2.32032 6.36094 4.05938 3.99844 6.66563 2.69062C8.21719 1.9125 10.1297 1.60781 11.8594 1.87031Z" fill="#1C1C1C"/>
</g>
<defs>
<clipPath id="clip0_4006_603">
<rect width="24" height="24" fill="white"/>
</clipPath>
</defs>
</svg>
