<svg width="24" height="24" viewBox="0 0 24 24" fill="none" xmlns="http://www.w3.org/2000/svg">
<path d="M9.2107 0.12285C6.89976 0.436913 4.73413 1.50097 3.10288 3.13223C0.445072 5.79004 -0.595554 9.61504 0.351321 13.2479C1.32163 16.9697 4.31695 19.9182 8.06695 20.8322C8.95757 21.0478 9.55289 21.1135 10.5935 21.1135C11.6857 21.1135 12.2482 21.0432 13.2607 20.7853C14.6248 20.4385 16.0966 19.7072 17.1279 18.8682L17.3951 18.6478L18.506 19.7307C19.1154 20.3213 20.2826 21.4744 21.0935 22.29C21.9044 23.1057 22.6498 23.8135 22.7435 23.865C23.0623 24.0291 23.5404 23.9447 23.7748 23.6869C23.8919 23.5603 23.9998 23.2791 23.9998 23.1103C23.9998 22.7728 23.9013 22.6603 21.2529 20.0119L18.6513 17.4103L18.8716 17.1338C19.8232 15.9666 20.6201 14.2744 20.9294 12.7697C21.0982 11.9354 21.1451 11.4525 21.1451 10.5479C21.1451 8.79473 20.7701 7.26191 19.9638 5.7291C18.3419 2.62129 15.3513 0.549412 11.8591 0.113476C11.1982 0.0337868 9.84351 0.0337868 9.2107 0.12285ZM11.8591 1.87129C13.8044 2.1666 15.4544 2.9916 16.8279 4.36035C18.5154 6.05254 19.4107 8.2041 19.4107 10.576C19.4107 13.0135 18.4732 15.2166 16.7294 16.8994C15.3841 18.1978 13.8232 18.976 11.9294 19.2947C11.306 19.3978 9.90913 19.4025 9.25288 19.2994C7.34976 18.9947 5.67632 18.1416 4.31226 16.7822C2.9857 15.451 2.17007 13.8525 1.84663 11.9307C1.73413 11.2791 1.73413 9.89629 1.84663 9.23535C2.32007 6.36191 4.05913 3.99941 6.66538 2.6916C8.21695 1.91348 10.1294 1.60879 11.8591 1.87129Z" fill="#1C1C1C"/>
</svg>
