<svg width="81" height="80" viewBox="0 0 81 80" fill="none" xmlns="http://www.w3.org/2000/svg">
<path fill-rule="evenodd" clip-rule="evenodd" d="M60.4476 19.3548H62.3637C63.123 19.4177 63.8705 19.5434 64.6239 19.6691C62.6782 22.6002 60.7383 25.5313 58.7747 28.4509C60.0264 26.2283 61.3552 24.0515 62.6248 21.8403C59.8129 21.5832 56.8763 22.1717 54.5389 23.7429C53.2813 24.5771 52.433 25.8341 51.5906 27.034C49.2415 30.5193 47.1829 34.176 44.8932 37.6955C43.2558 40.2211 41.5592 42.7293 39.4709 44.9347C38.4327 45.9804 37.2998 47.0375 35.8582 47.5287C34.5945 47.883 33.2717 47.8773 31.9725 48.0201C33.2302 47.7916 34.5828 47.8488 35.7396 47.2545C37.5252 46.2774 38.8065 44.6663 40.0168 43.1064C44.3295 37.2556 47.2364 30.5878 51.0924 24.4685C46.5364 21.4403 40.6752 20.3147 35.2767 21.5203C30.7979 22.4802 26.7521 25.0228 23.8986 28.4681C22.4511 28.2967 20.9799 28.4852 19.6333 29.0052C21.4664 26.3769 23.8808 24.12 26.7284 22.5202C30.5962 20.3147 35.2056 19.3548 39.6845 19.7891C43.8728 20.1662 47.9126 21.806 51.1694 24.3657C53.0441 21.2232 56.8288 19.652 60.4476 19.3548Z" fill="#005A9C"/>
<path fill-rule="evenodd" clip-rule="evenodd" d="M17.7571 32.2719C16.1672 35.9743 15.7282 40.1339 16.5706 44.0648C17.3774 48.0815 19.5012 51.824 22.4911 54.7207C28.0556 60.3658 37.2092 62.2684 44.7432 59.5544C48.3974 58.2288 51.7966 56.0863 54.2051 53.0981C50.4915 54.715 46.2915 55.1778 42.2694 54.5778C35.0023 53.498 28.0734 49.3328 24.514 43.0478C23.0487 40.3852 21.8919 37.2199 22.8944 34.2202C23.4402 32.7747 24.1758 31.0891 25.8428 30.5749C24.3835 30.0493 22.8114 29.6779 21.2453 29.9121C19.7919 30.1121 18.3918 30.9692 17.7571 32.2719Z" fill="#005A9C"/>
<path fill-rule="evenodd" clip-rule="evenodd" d="M58.4323 33.2447C57.2339 33.3818 55.9941 33.6618 55.0271 34.3874C53.366 35.5873 52.0135 37.1186 50.6965 38.6497C48.5254 41.2667 46.2355 43.7863 43.9575 46.3174C42.8718 47.4888 41.6556 48.6543 40.0718 49.1686C38.0132 49.8257 35.7887 49.7914 33.6768 49.3915C35.0471 50.2428 36.4174 51.1113 37.9065 51.7682C40.576 52.094 43.2692 51.294 45.4999 49.9056C48.9286 47.8602 51.4381 44.6834 54.9262 42.7178C56.0652 42.0037 57.3111 41.4037 58.6756 41.2324C60.7518 38.724 62.7213 36.1415 64.679 33.5532C62.6205 33.2275 60.5146 33.0276 58.4323 33.2447Z" fill="#005A9C"/>
<path fill-rule="evenodd" clip-rule="evenodd" d="M58.7072 41.2388C60.7302 40.9417 62.8064 41.3588 64.6573 42.1587C62.3496 45.1184 60.0242 48.0837 57.3488 50.752C55.13 53.0089 51.7901 53.8087 48.6638 53.923C44.9858 54.0088 41.2603 53.3002 37.9323 51.7748C40.6018 52.1004 43.2951 51.3005 45.5256 49.9121C48.9546 47.8665 51.4639 44.6899 54.952 42.7244C56.097 42.0101 57.3427 41.4045 58.7072 41.2388Z" fill="#FD4236"/>
</svg>
